<svg width="250" height="500" viewBox="0 0 176 88" fill="none" xmlns="http://www.w3.org/2000/svg">
<path d="M0.870605 0.423103C10.1868 8.83579 19.7038 16.9674 29.4416 24.8179C28.1165 37.2663 27.1327 49.7548 26.4902 62.2835C39.0188 61.641 51.5074 60.6572 63.9557 59.332C71.8062 69.0698 79.9579 78.6069 88.3505 87.903C96.7632 78.5868 104.895 69.0698 112.745 59.332C125.194 60.6572 137.682 61.641 150.211 62.2835C149.568 49.7548 148.585 37.2663 147.259 24.8179C156.997 16.9674 166.534 8.81571 175.83 0.423103C166.514 -7.98959 156.997 -16.1212 147.259 -23.9717C148.585 -36.4201 149.568 -48.9086 150.211 -61.4373C137.682 -60.7948 125.194 -59.811 112.745 -58.4858C104.915 -68.2437 96.7632 -77.7607 88.3706 -87.0769C79.9579 -77.7607 71.8263 -68.2437 63.9758 -58.5059C51.5274 -59.831 39.0389 -60.8149 26.5102 -61.4574C27.1527 -48.9287 28.1365 -36.4401 29.4617 -23.9918C19.7038 -16.1212 10.1868 -7.98959 0.870605 0.423103ZM72.2078 7.10908C72.1676 7.06892 72.1074 7.04884 72.0672 7.00869C72.1676 7.02876 72.268 7.02877 72.3684 7.04884C72.3082 7.12916 72.2479 7.20947 72.1877 7.28978C72.1877 7.22955 72.1877 7.16931 72.2078 7.10908ZM72.2078 -6.28296C72.2078 -6.34319 72.1877 -6.40343 72.1877 -6.46366C72.2479 -6.38335 72.3082 -6.30304 72.3684 -6.22272C72.268 -6.20264 72.1676 -6.20264 72.0672 -6.18257C72.1074 -6.20264 72.1476 -6.2428 72.2078 -6.28296ZM81.6645 -15.7397C81.7047 -15.7799 81.7248 -15.8401 81.7649 -15.8803C81.7449 -15.7799 81.7449 -15.6795 81.7248 -15.5791C81.6445 -15.6393 81.5642 -15.6995 81.4838 -15.7598C81.5642 -15.7598 81.6043 -15.7598 81.6645 -15.7397ZM95.0566 -15.7397C95.1168 -15.7397 95.177 -15.7598 95.2373 -15.7598C95.157 -15.6995 95.0767 -15.6393 94.9963 -15.5791C94.9763 -15.6795 94.9763 -15.7799 94.9562 -15.8803C94.9963 -15.8401 95.0365 -15.7999 95.0566 -15.7397ZM104.533 -6.28296C104.574 -6.2428 104.634 -6.22272 104.674 -6.18257C104.574 -6.20264 104.473 -6.20264 104.373 -6.22272C104.433 -6.30304 104.493 -6.38335 104.553 -6.46366C104.553 -6.38335 104.533 -6.34319 104.533 -6.28296ZM104.533 7.10908C104.533 7.16931 104.553 7.22955 104.553 7.28978C104.493 7.20947 104.433 7.12916 104.373 7.04884C104.473 7.02877 104.574 7.02876 104.674 7.00869C104.634 7.04884 104.574 7.089 104.533 7.10908ZM95.0566 16.5859C95.0164 16.6261 94.9963 16.6863 94.9562 16.7264C94.9763 16.6261 94.9763 16.5257 94.9963 16.4253C95.0767 16.4855 95.157 16.5457 95.2373 16.606C95.177 16.606 95.1168 16.5859 95.0566 16.5859ZM81.6645 16.5859C81.6043 16.5859 81.5441 16.606 81.4838 16.606C81.5642 16.5457 81.6445 16.4855 81.7248 16.4253C81.7449 16.5257 81.7449 16.6261 81.7649 16.7264C81.7449 16.6863 81.7047 16.6261 81.6645 16.5859ZM80.8012 3.55527C75.5006 2.91277 70.2 2.27027 64.9195 1.6077C64.4175 1.20614 63.8955 0.824661 63.3935 0.423103C63.8955 0.0215378 64.4175 -0.35994 64.9195 -0.761505C70.2201 -1.42408 75.5207 -2.08665 80.8012 -2.70908C77.5084 -6.90538 74.2156 -11.1218 70.9429 -15.3382C70.8626 -15.9806 70.7822 -16.6231 70.7019 -17.2456C71.3444 -17.1653 71.9869 -17.0849 72.6094 -17.0046C76.8257 -13.7319 81.0421 -10.4391 85.2384 -7.14632C85.8809 -12.4469 86.5234 -17.7475 87.186 -23.028C87.5876 -23.53 87.969 -24.052 88.3706 -24.554C88.7722 -24.052 89.1536 -23.53 89.5552 -23.028C90.2178 -17.7274 90.8803 -12.4268 91.5028 -7.14632C95.6991 -10.4391 99.9155 -13.7319 104.132 -17.0046C104.774 -17.0849 105.417 -17.1653 106.039 -17.2456C105.959 -16.6031 105.879 -15.9606 105.798 -15.3382C102.526 -11.1218 99.2328 -6.90538 95.94 -2.70908C101.241 -2.06657 106.541 -1.42408 111.822 -0.761505C112.324 -0.35994 112.846 0.0215378 113.348 0.423103C112.846 0.824661 112.324 1.20614 111.822 1.6077C106.521 2.27027 101.221 2.93285 95.94 3.55527C99.2328 7.75157 102.526 11.968 105.798 16.1843C105.879 16.8268 105.959 17.4693 106.039 18.0918C105.397 18.0114 104.754 17.9311 104.132 17.8508C99.9155 14.5781 95.6991 11.2853 91.5028 7.99251C90.8603 13.2931 90.2178 18.5937 89.5552 23.8742C89.1536 24.3762 88.7722 24.8982 88.3706 25.4002C87.969 24.8982 87.5876 24.3762 87.186 23.8742C86.5234 18.5736 85.8608 13.273 85.2384 7.99251C81.0421 11.2853 76.8257 14.5781 72.6094 17.8508C71.9669 17.9311 71.3244 18.0114 70.7019 18.0918C70.7822 17.4493 70.8626 16.8068 70.9429 16.1843C74.2156 11.968 77.5084 7.75157 80.8012 3.55527ZM51.668 0.423103C55.9044 3.77613 60.161 7.06892 64.4577 10.3216C63.7148 15.6623 63.0321 21.0031 62.4097 26.3639C67.7706 25.7415 73.1113 25.0588 78.4521 24.3159C81.7047 28.6126 84.9975 32.8893 88.3505 37.1056C91.7035 32.8893 94.9963 28.6126 98.249 24.3159C103.59 25.0588 108.93 25.7415 114.291 26.3639C113.669 21.0031 112.986 15.6623 112.243 10.3216C116.54 7.06892 120.817 3.77613 125.033 0.423103C120.817 -2.92993 116.54 -6.22272 112.243 -9.47536C112.986 -14.8161 113.669 -20.1569 114.291 -25.5177C108.93 -24.8953 103.59 -24.2126 98.249 -23.4697C94.9963 -27.7664 91.7035 -32.0431 88.3505 -36.2594C84.9975 -32.023 81.7047 -27.7664 78.4521 -23.4697C73.1113 -24.2126 67.7706 -24.8953 62.4097 -25.5177C63.0321 -20.1569 63.7148 -14.8161 64.4577 -9.47536C60.161 -6.24281 55.8844 -2.92993 51.668 0.423103ZM38.1956 21.2038C29.6826 14.4777 21.3502 7.5508 13.1584 0.423103C21.3502 -6.7046 29.6826 -13.6315 38.1956 -20.3577C36.9307 -31.1395 35.9268 -41.9415 35.1839 -52.7636C46.006 -52.0207 56.808 -51.0168 67.5899 -49.7519C74.316 -58.2649 81.2429 -66.5973 88.3706 -74.7892C95.4983 -66.5973 102.425 -58.2649 109.151 -49.7519C119.933 -51.0168 130.735 -52.0207 141.557 -52.7636C140.814 -41.9415 139.81 -31.1395 138.546 -20.3577C147.059 -13.6315 155.391 -6.7046 163.583 0.423103C155.391 7.5508 147.059 14.4777 138.546 21.2038C139.81 31.9857 140.814 42.7877 141.557 53.6098C130.735 52.8669 119.933 51.863 109.151 50.5981C102.425 59.1111 95.4983 67.4435 88.3706 75.6353C81.2429 67.4435 74.316 59.1111 67.5899 50.5981C56.808 51.863 46.006 52.8669 35.1839 53.6098C35.9268 42.7676 36.9307 31.9657 38.1956 21.2038Z" fill="url(#paint0_linear)" fill-opacity="0.3"/>
<defs>
<linearGradient id="paint0_linear" x1="118.604" y1="-67.913" x2="88.3505" y2="87.903" gradientUnits="userSpaceOnUse">
<stop offset="0.0625" stop-color="white"/>
<stop offset="1" stop-color="white" stop-opacity="0"/>
</linearGradient>
</defs>
</svg>
