<svg width="150" height="140" viewBox="0 0 201 185" fill="none" xmlns="http://www.w3.org/2000/svg">
<path d="M-19.1805 111.23C-19.1449 114.354 -18.1101 117.479 -16.0763 119.992C-15.8978 120.244 -15.6838 120.531 -15.434 120.783C-15.1842 121.034 -14.9344 121.249 -14.649 121.429C-9.40381 125.666 -1.58956 125.774 3.37017 120.783C5.86787 118.269 7.18809 114.749 7.29514 111.23C7.18809 107.675 5.83219 104.156 3.37017 101.678C-1.58956 96.6862 -9.40381 96.794 -14.649 101.031C-14.8988 101.211 -15.1842 101.426 -15.434 101.678C-15.6838 101.929 -15.8978 102.181 -16.0763 102.468C-18.0744 104.982 -19.1449 108.106 -19.1805 111.23ZM12.9328 33.1597C10.7562 35.3862 9.32898 38.3309 8.97216 41.5629C8.9008 41.8861 8.86512 42.2093 8.9008 42.5684C8.9008 42.9275 8.93648 43.2507 8.97216 43.5739C9.68579 50.3252 15.1807 55.9273 22.1743 55.9632C25.6711 55.9632 29.0965 54.419 31.6656 52.013C34.0919 49.4274 35.5906 45.98 35.5906 42.4607C35.5906 35.4221 29.9886 29.8918 23.2804 29.1736C22.9593 29.1018 22.6382 29.0659 22.2814 29.1018C21.9245 29.1018 21.6034 29.1377 21.2823 29.1736C18.1066 29.5327 15.1451 31.0051 12.9328 33.1597ZM90.5044 0.839874C87.4001 0.875785 84.2958 1.9172 81.7981 3.96413C81.5483 4.14368 81.2629 4.35915 81.0131 4.61053C80.7633 4.8619 80.5493 5.11328 80.3709 5.40057C76.1604 10.6795 76.0534 18.544 81.0131 23.5356C83.5108 26.0494 87.0076 27.3781 90.5044 27.4858C94.0369 27.3781 97.5337 26.0135 99.9957 23.5356C104.955 18.544 104.848 10.6795 100.638 5.40057C100.46 5.14919 100.245 4.8619 99.9957 4.61053C99.7459 4.35915 99.4961 4.14368 99.2107 3.96413C96.6773 1.95311 93.573 0.875785 90.5044 0.839874ZM168.04 33.1597C165.828 30.9692 162.902 29.5327 159.691 29.1736C159.37 29.1018 159.049 29.0659 158.692 29.1018C158.335 29.1018 158.014 29.1377 157.693 29.1736C150.985 29.8918 145.418 35.4221 145.383 42.4607C145.383 45.98 146.917 49.4274 149.308 52.013C151.877 54.4549 155.302 55.9632 158.799 55.9632C165.792 55.9632 171.287 50.3252 172.001 43.5739C172.072 43.2507 172.108 42.9275 172.072 42.5684C172.072 42.2093 172.037 41.8861 172.001 41.5629C171.644 38.3668 170.217 35.3862 168.04 33.1597ZM200.154 111.23C200.118 108.106 199.083 104.982 197.049 102.468C196.871 102.217 196.657 101.929 196.407 101.678C196.157 101.426 195.908 101.211 195.622 101.031C190.377 96.794 182.563 96.6862 177.603 101.678C175.105 104.192 173.785 107.711 173.678 111.23C173.785 114.785 175.141 118.305 177.603 120.783C182.563 125.774 190.377 125.666 195.622 121.429C195.872 121.249 196.157 121.034 196.407 120.783C196.657 120.531 196.871 120.28 197.049 119.992C199.083 117.443 200.154 114.319 200.154 111.23ZM168.04 189.265C170.217 187.038 171.644 184.094 172.001 180.862C172.072 180.538 172.108 180.215 172.072 179.856C172.072 179.497 172.037 179.174 172.001 178.851C171.287 172.099 165.792 166.497 158.799 166.461C155.302 166.461 151.877 168.005 149.308 170.411C146.881 172.997 145.383 176.444 145.383 179.964C145.383 187.002 150.985 192.533 157.693 193.251C158.014 193.323 158.335 193.359 158.692 193.323C159.049 193.323 159.37 193.287 159.691 193.251C162.902 192.892 165.828 191.455 168.04 189.265ZM90.5044 221.585C93.6087 221.549 96.713 220.507 99.2107 218.46C99.4605 218.281 99.7459 218.065 99.9957 217.814C100.245 217.563 100.46 217.311 100.638 217.024C104.848 211.745 104.955 203.88 99.9957 198.889C97.498 196.375 94.0012 195.046 90.5044 194.939C86.9719 195.046 83.4751 196.411 81.0131 198.889C76.0534 203.88 76.1604 211.745 80.3709 217.024C80.5493 217.275 80.7633 217.563 81.0131 217.814C81.2629 218.065 81.5127 218.281 81.7981 218.46C84.2958 220.507 87.4001 221.585 90.5044 221.585ZM12.9328 189.265C15.1451 191.455 18.0709 192.892 21.2823 193.251C21.6034 193.323 21.9245 193.359 22.2814 193.323C22.6382 193.323 22.9593 193.287 23.2804 193.251C29.9886 192.533 35.5549 187.002 35.5906 179.964C35.5906 176.444 34.0563 172.997 31.6656 170.411C29.0965 167.969 25.6711 166.461 22.1743 166.461C15.1807 166.461 9.68579 172.099 8.97216 178.851C8.9008 179.174 8.86512 179.497 8.9008 179.856C8.9008 180.215 8.93648 180.538 8.97216 180.862C9.32898 184.094 10.7919 187.038 12.9328 189.265ZM-0.554798 111.23C-1.09002 115.109 -5.87134 118.664 -9.72494 115.073C-10.8668 113.816 -11.2949 112.487 -11.2236 111.23C-11.2949 109.973 -10.8668 108.645 -9.72494 107.388C-5.87134 103.797 -1.05434 107.352 -0.554798 111.23ZM26.135 46.4468C23.0307 48.8169 17.1432 47.9191 16.9648 42.6043C17.0362 40.9165 17.6785 39.6596 18.6062 38.8337C19.4268 37.9 20.6757 37.2536 22.3527 37.1818C27.5622 37.3972 28.49 43.3225 26.135 46.4468ZM90.5044 19.5854C86.6508 19.0467 83.1183 14.2347 86.6865 10.3563C87.9353 9.20713 89.2556 8.7762 90.5044 8.84802C91.7533 8.7762 93.0735 9.20713 94.3223 10.3563C97.8905 14.2347 94.358 19.0826 90.5044 19.5854ZM154.874 46.4468C152.519 43.3225 153.411 37.3972 158.692 37.2177C160.369 37.2895 161.618 37.9 162.438 38.8696C163.366 39.6955 164.008 40.9524 164.08 42.6402C163.866 47.8832 157.942 48.8169 154.874 46.4468ZM181.528 111.23C182.063 107.352 186.844 103.797 190.698 107.388C191.84 108.645 192.268 109.973 192.197 111.23C192.268 112.487 191.84 113.816 190.698 115.073C186.88 118.664 182.063 115.109 181.528 111.23ZM154.874 176.014C157.978 173.643 163.866 174.541 164.044 179.856C163.973 181.544 163.366 182.801 162.403 183.627C161.582 184.56 160.333 185.207 158.656 185.279C153.411 185.063 152.519 179.102 154.874 176.014ZM90.5044 202.839C94.358 203.378 97.8905 208.19 94.3223 212.068C93.0735 213.217 91.7533 213.648 90.5044 213.576C89.2556 213.648 87.9353 213.217 86.6865 212.068C83.1183 208.226 86.6508 203.378 90.5044 202.839ZM26.135 176.014C28.49 179.138 27.5979 185.063 22.317 185.243C20.64 185.207 19.3912 184.56 18.5705 183.627C17.6428 182.801 17.0005 181.544 16.9291 179.856C17.1432 174.541 23.0307 173.643 26.135 176.014Z" fill="url(#paint0_linear)" fill-opacity="0.3"/>
<defs>
<linearGradient id="paint0_linear" x1="90.4866" y1="0.839874" x2="90.4866" y2="221.585" gradientUnits="userSpaceOnUse">
<stop offset="0.0625" stop-color="white"/>
<stop offset="1" stop-color="white" stop-opacity="0"/>
</linearGradient>
</defs>
</svg>
